<svg width="195" height="177" viewBox="0 0 195 177" fill="none" xmlns="http://www.w3.org/2000/svg">
<g stroke-width="0.5" stroke="#29B852" stroke-linejoin="round">
    <path d="M30.2278 19.6398C32.3146 8.79305 42.9606 0 54.0063 0L20 176.759C8.95429 176.759 1.69167 167.965 3.77847 157.119L30.2278 19.6398Z M162.67 58.92H182.67L171.33 117.84H151.33L162.67 58.92Z M54.0063 0H174.006C185.052 0 192.315 8.79305 190.228 19.6398H50.2278L54.0063 0Z M66.4494 39.2797H186.449L182.671 58.9195H62.6709L66.4494 39.2797Z M38.8924 78.5593H138.892L135.114 98.1992H35.1139L38.8924 78.5593Z M51.3354 117.839H171.335C169.249 128.686 158.603 137.479 147.557 137.479H47.557L51.3354 117.839Z" fill="#29B852"/>
</g>
</svg>